<svg xmlns="http://www.w3.org/2000/svg" width="107.48" height="225.802" viewBox="0 0 107.48 225.802">
  <g id="Group_2" data-name="Group 2" transform="translate(-418.489 -325.33)">
    <g id="Group_1" data-name="Group 1">
      <path id="Path_1" data-name="Path 1" d="M432.213,476.152c-3.368-10.384-2.122-23.733-3.923-32.53-4.594-22.434-7.947-34.163-6.665-39.472,3.115-12.935,19.472,18.625,22.482,3.579,4.617-23.077-4.733-58.732,10.508-51.015s11.489,22.7,20.968,15.791,13.167-47.642,25.112-43.909,3.64,57.414,10.154,59.33,9.371-.028,11.987,6.659c1.35,3.45-5.018,14.569-11.987,25.981-6.271,10.269-13.239,20.9-10.154,23.058,6.373,4.457,8.714-6.119,10.154,0s-2.836,11.91-5.5,15.254S462.29,484.7,462.29,484.7" fill="none" stroke="#63d468" stroke-linecap="round" stroke-width="6"/>
      <path id="Path_2" data-name="Path 2" d="M490.111,389.586c-3.753,16.056-5.692,23.308-11.469,36.742s-26.568,42.625-26.568,42.625" fill="none" stroke="#63d468" stroke-linecap="round" stroke-linejoin="round" stroke-width="6"/>
      <path id="Path_3" data-name="Path 3" d="M461.37,391.8s1.665,5.222,3.675,10.058,3.173,14.291,3.173,14.291" fill="none" stroke="#63d468" stroke-linecap="round" stroke-width="6"/>
      <path id="Path_4" data-name="Path 4" d="M461.37,391.8s1.665,5.222,3.675,10.058,3.173,14.291,3.173,14.291" transform="translate(-18 34.029)" fill="none" stroke="#63d468" stroke-linecap="round" stroke-width="6"/>
      <path id="Path_5" data-name="Path 5" d="M473.818,398.393s-2.327.75-6.3,4.424-6.938,4.444-6.938,4.444" transform="translate(35.848 7.029)" fill="none" stroke="#63d468" stroke-linecap="round" stroke-width="6"/>
      <path id="Path_6" data-name="Path 6" d="M475.513,399.431s-3.287,1.906-7.38,4.531a24.1,24.1,0,0,1-7.552,3.3" transform="translate(11.603 57.029)" fill="none" stroke="#63d468" stroke-linecap="round" stroke-width="6"/>
    </g>
    <path id="Path_7" data-name="Path 7" d="M444.674,487.26c-.121,3.335-2.487,10-2.493,15.188s2.451,20.816,5.882,23.5c1.688,1.319,4.618,4.178,8.583,7.383s6.869,3.493,7.553,5.993-.518,5.237-5.4,4.83-8.915-2.372-8.48,0,2.736,6.438-1.526,6.914-8.712-1.6-10.6-5.168-2.324-17.122-2.742-19.084-.718-2.1-2.162-9.784-.916-8.41,0-17.512,6.906-19.959,8.893-19.409S444.8,483.925,444.674,487.26Z" fill="#63d468"/>
  </g>
</svg>
